<svg width="1074" height="541" viewBox="0 0 1074 541" fill="none" xmlns="http://www.w3.org/2000/svg">
<path fill-rule="evenodd" clip-rule="evenodd" d="M296.957 274.28L296.995 282.406C297.146 340.384 302.324 334.337 282.784 354.066C265.474 371.565 168.907 465.94 163.502 474.104H191.887C213.43 450.369 249.562 415.975 273.298 391.559C323.83 339.553 317.631 361.058 317.631 313.172L317.14 223.635L0 540.624L365.216 540.699C358.677 531.175 340.498 514.318 331.88 505.323C298.961 471.08 310.564 473.613 273.902 474.028C283.465 488.995 308.334 505.399 316.346 519.799L50.7213 519.383L296.957 274.28Z" fill="#FEFEFE"/>
<path fill-rule="evenodd" clip-rule="evenodd" d="M67.9559 257.688C84.9637 257.688 101.972 257.688 119.017 257.764C132.548 257.839 130.469 258.482 137.953 250.809C142.677 246.009 148.535 243.099 152.013 237.279L88.4787 237.052C86.5511 188.485 91.0488 89.0079 88.3653 54.4252C87.3448 41.2724 70.5259 34.9606 61.7574 20.9008L151.483 20.485C271.37 20.5606 303.156 134.627 296.239 150.69L231.647 214.715C206.173 200.655 229.115 190.488 179.074 190.98C185.764 203.679 206.098 217.361 215.32 229.984C209.235 238.602 101.594 345.033 83.4519 362.683C66.1417 379.578 67.2378 375.307 67.9937 405.921C78.9165 400.365 279.609 194.986 310.828 165.09C316.876 159.307 318.274 159.043 317.405 147.288C311.546 69.2409 245.329 0 156.888 0L12.5102 0.302362C18.822 10.2803 40.7433 30.1606 50.3433 39.9496C54.9543 44.7118 66.3307 53.9339 67.6157 60.2835L67.9559 257.688Z" fill="#FEFEFE"/>
<path fill-rule="evenodd" clip-rule="evenodd" d="M110.476 136.781L139.427 136.668C144.189 129.562 151.483 125.556 154.809 118.488C132.359 117.732 123.628 115.691 110.476 136.781Z" fill="#FEFEFE"/>
<path d="M447.761 268.876L464.995 298.885V302.4H440.58L425.461 272.806H413.367V302.4H390.35V207.836C390.425 207.836 396.888 207.798 409.776 207.761C422.665 207.723 429.128 207.723 429.128 207.836C439.106 207.836 446.891 211.162 452.485 217.814C458.079 224.504 460.838 232.328 460.838 241.323C460.687 253.417 456.302 262.602 447.761 268.876ZM412.989 252.661H428.976C432 252.661 434.381 251.528 436.044 249.184C437.707 246.841 438.576 244.044 438.576 240.794C438.576 237.543 437.745 234.822 436.12 232.63C434.457 230.4 432.113 229.304 428.976 229.304H412.989V252.661Z" fill="#FEFEFE"/>
<path d="M562.847 255.231C562.847 269.669 558.652 281.424 550.186 290.57C541.757 299.717 530.872 304.29 517.531 304.29C511.559 304.29 505.928 303.269 500.598 301.191C495.269 299.112 490.469 296.088 486.236 292.12C482.003 288.151 478.639 283.011 476.145 276.661C473.688 270.312 472.441 263.168 472.441 255.231C472.441 244.8 474.671 235.767 479.131 228.17C483.553 220.535 489.184 214.979 495.912 211.389C502.677 207.836 510.009 206.06 517.909 206.06C523.616 206.06 529.134 207.118 534.463 209.235C539.792 211.351 544.592 214.413 548.825 218.343C553.058 222.312 556.46 227.49 559.03 233.839C561.562 240.189 562.847 247.332 562.847 255.231ZM495.496 255.231C495.496 263.282 497.65 269.556 502.035 274.091C506.419 278.627 511.597 280.932 517.644 280.932C523.616 280.932 528.794 278.627 533.216 274.091C537.6 269.556 539.83 263.282 539.83 255.231C539.83 247.219 537.638 240.945 533.254 236.409C528.907 231.836 523.767 229.568 517.909 229.568C511.672 229.568 506.419 231.798 502.035 236.258C497.65 240.718 495.496 247.068 495.496 255.231Z" fill="#FEFEFE"/>
<path d="M620.296 248.617L655.181 207.685H663.345V302.551H640.327V258.898L621.543 279.987H618.898L600.151 258.898V302.551H577.096V207.685H585.26L620.296 248.617Z" fill="#FEFEFE"/>
<path d="M733.379 290.797H700.384L695.357 302.551H671.282V299.15L711.723 207.005H722.305L762.331 299.15V302.551H738.52L733.379 290.797ZM716.863 247.257L707.792 270.123H726.085L716.863 247.257Z" fill="#FEFEFE"/>
<path d="M839.773 302.816L793.436 253.757V302.551H770.381V207.534H777.562L823.559 254.173V207.949H846.576V302.816H839.773Z" fill="#FEFEFE"/>
<path d="M385.814 437.253H407.698C407.698 440.315 409.096 442.696 411.855 444.397C414.652 446.097 417.902 446.967 421.682 446.967C425.197 446.967 428.334 446.173 431.055 444.548C433.814 442.923 435.175 440.768 435.175 438.047C435.175 436.611 434.948 435.326 434.457 434.192C434.003 433.058 433.285 432.189 432.265 431.508C431.244 430.828 430.375 430.299 429.543 429.883C428.75 429.468 427.54 429.165 425.915 428.938C424.252 428.712 423.118 428.56 422.438 428.447C421.757 428.371 420.586 428.296 418.923 428.182C414.652 427.918 410.683 427.238 407.017 426.179C403.351 425.083 399.95 423.496 396.813 421.417C393.676 419.376 391.181 416.542 389.405 412.989C387.591 409.436 386.683 405.279 386.683 400.479C386.683 390.69 390.009 383.055 396.624 377.65C403.276 372.245 411.364 369.562 420.926 369.562C426.822 369.562 432.302 370.658 437.367 372.85C442.432 375.08 446.627 378.595 449.953 383.395C453.279 388.233 454.904 393.902 454.791 400.479H433.285C433.209 397.417 432 395.149 429.732 393.6C427.465 392.088 424.668 391.294 421.304 391.294C413.329 391.294 409.361 394.205 409.361 399.949C409.361 402.935 410.419 405.014 412.573 406.186C414.69 407.319 418.129 408.189 422.816 408.718C427.011 409.096 430.677 409.587 433.776 410.23C436.876 410.834 440.05 411.855 443.225 413.253C446.4 414.652 449.008 416.353 451.049 418.394C453.052 420.434 454.715 423.118 456 426.519C457.323 429.883 457.965 433.776 457.965 438.198C457.965 447.571 454.375 454.942 447.269 460.346C440.126 465.751 431.698 468.472 421.946 468.472C411.855 468.472 403.276 465.751 396.17 460.346C389.102 454.942 385.625 447.231 385.814 437.253Z" fill="#FEFEFE"/>
<path d="M522.293 454.526H489.297L484.271 466.28H460.233V462.916L500.636 370.771H511.219L551.282 462.916V466.28H527.471L522.293 454.526ZM505.814 411.023L496.743 433.852H514.998L505.814 411.023Z" fill="#FEFEFE"/>
<path d="M612.623 466.28L593.348 429.808C591.571 430.072 587.905 430.223 582.387 430.223V466.28H559.332V371.716H582.387V408.718C589.19 408.718 593.461 408.227 595.238 407.244C597.09 406.261 598.488 404.447 599.508 401.764C600.529 399.118 601.738 394.545 603.175 388.044C604.686 381.581 607.975 376.705 613.039 373.455C618.141 370.242 625.436 369.675 635.036 371.83V388.46C629.064 388.006 625.474 390.274 624.302 395.225C621.278 407.017 617.688 415.408 613.493 420.359C615.685 423.949 619.615 430.601 625.323 440.277C631.03 449.953 635.49 457.436 638.664 462.652V466.28H612.623Z" fill="#FEFEFE"/>
<path d="M733.002 418.998C733.002 433.398 728.768 445.19 720.34 454.337C711.912 463.483 701.027 468.057 687.647 468.057C681.713 468.057 676.044 466.998 670.715 464.957C665.386 462.879 660.624 459.855 656.353 455.887C652.12 451.918 648.756 446.778 646.299 440.428C643.805 434.079 642.595 426.935 642.595 418.998C642.595 408.567 644.787 399.534 649.247 391.899C653.707 384.302 659.301 378.709 666.066 375.156C672.831 371.603 680.164 369.827 688.025 369.827C693.732 369.827 699.25 370.885 704.617 373.001C709.946 375.118 714.709 378.142 718.942 382.11C723.213 386.079 726.614 391.219 729.146 397.606C731.716 403.956 733.002 411.061 733.002 418.998ZM665.613 418.998C665.613 427.011 667.805 433.285 672.189 437.858C676.535 442.394 681.751 444.661 687.798 444.661C693.732 444.661 698.948 442.394 703.332 437.858C707.754 433.285 709.946 427.011 709.946 418.998C709.946 410.986 707.754 404.712 703.408 400.138C699.024 395.603 693.921 393.335 688.025 393.335C681.827 393.335 676.535 395.565 672.189 400.025C667.805 404.485 665.613 410.797 665.613 418.998Z" fill="#FEFEFE"/>
<path d="M777.94 424.554H778.318L785.499 399.798L796.346 371.716H820.913V375.345L782.853 467.225H773.291L734.891 375.345V371.716H759.458L770.532 399.798L777.94 424.554Z" fill="#FEFEFE"/>
<path d="M824.428 437.253H846.349C846.349 440.315 847.71 442.696 850.507 444.397C853.266 446.097 856.554 446.967 860.334 446.967C863.849 446.967 866.986 446.173 869.707 444.548C872.428 442.923 873.789 440.768 873.789 438.047C873.789 436.611 873.562 435.326 873.109 434.192C872.655 433.058 871.899 432.189 870.879 431.508C869.896 430.828 868.989 430.299 868.195 429.883C867.401 429.468 866.154 429.165 864.529 428.938C862.904 428.712 861.732 428.56 861.09 428.447C860.409 428.371 859.238 428.296 857.537 428.182C853.266 427.918 849.297 427.238 845.631 426.179C842.003 425.083 838.601 423.496 835.427 421.417C832.29 419.376 829.833 416.542 828.019 412.989C826.205 409.436 825.297 405.279 825.297 400.479C825.297 390.69 828.623 383.055 835.238 377.65C841.89 372.245 849.978 369.562 859.578 369.562C865.436 369.562 870.916 370.658 875.981 372.85C881.083 375.08 885.279 378.595 888.605 383.395C891.893 388.233 893.518 393.902 893.442 400.479H871.899C871.823 397.417 870.652 395.149 868.384 393.6C866.116 392.088 863.282 391.294 859.956 391.294C851.981 391.294 847.975 394.205 847.975 399.949C847.975 402.935 849.033 405.014 851.187 406.186C853.342 407.319 856.743 408.189 861.468 408.718C865.663 409.096 869.291 409.587 872.39 410.23C875.527 410.834 878.664 411.855 881.839 413.253C885.052 414.652 887.66 416.353 889.663 418.394C891.666 420.434 893.329 423.118 894.652 426.519C895.937 429.883 896.579 433.776 896.579 438.198C896.579 447.571 893.027 454.942 885.883 460.346C878.74 465.751 870.312 468.472 860.56 468.472C850.507 468.472 841.927 465.751 834.822 460.346C827.716 454.942 824.239 447.231 824.428 437.253Z" fill="#FEFEFE"/>
<path d="M963.817 466.28L944.579 429.808C942.803 430.072 939.137 430.223 933.619 430.223V466.28H910.564V371.716H933.619V408.718C940.422 408.718 944.693 408.227 946.469 407.244C948.321 406.261 949.72 404.447 950.74 401.764C951.761 399.118 952.97 394.545 954.406 388.044C955.918 381.581 959.206 376.705 964.271 373.455C969.373 370.242 976.668 369.675 986.268 371.83V388.46C980.296 388.006 976.705 390.274 975.534 395.225C972.51 407.017 968.92 415.408 964.724 420.359C966.916 423.949 970.847 430.601 976.554 440.277C982.261 449.953 986.721 457.436 989.896 462.652V466.28H963.817Z" fill="#FEFEFE"/>
<path d="M1032.08 403.049H1033.1L1049.08 371.716H1073.54V375.345L1044.06 428.863V466.28H1021V428.863L991.408 375.345V371.716H1016.09L1032.08 403.049Z" fill="#FEFEFE"/>
</svg>
