<svg aria-hidden="true" style="position: absolute; width: 0; height: 0; overflow: hidden;" version="1.1" xmlns="http://www.w3.org/2000/svg" xmlns:xlink="http://www.w3.org/1999/xlink">
    <defs>
        <symbol id="icon-Star" viewBox="0 0 21 20">
            <path fill="#ffde05" style="fill: var(--color1, #ffde05)" d="M10.181 0.357l2.392 7.403h7.741l-6.263 4.576 2.392 7.403-6.263-4.576-6.263 4.576 2.392-7.403-6.263-4.576h7.741l2.392-7.403z"></path>
        </symbol>
        <symbol id="icon-Plus" viewBox="0 0 23 20">
            <path d="M19.966 8.306h-6.911v-5.75c0-0.706-0.688-1.278-1.536-1.278h-1.536c-0.848 0-1.536 0.572-1.536 1.278v5.75h-6.911c-0.848 0-1.536 0.572-1.536 1.278v1.278c0 0.706 0.688 1.278 1.536 1.278h6.911v5.75c0 0.706 0.688 1.278 1.536 1.278h1.536c0.848 0 1.536-0.572 1.536-1.278v-5.75h6.911c0.848 0 1.536-0.572 1.536-1.278v-1.278c0-0.706-0.688-1.278-1.536-1.278z"></path>
        </symbol>
        <symbol id="icon-Minus" viewBox="0 0 80 20">
            <path d="M74.286 0.192h-68.571c-3.155 0-5.714 2.253-5.714 5.032v5.032c0 2.779 2.559 5.032 5.714 5.032h68.571c3.156 0 5.714-2.253 5.714-5.032v-5.032c0-2.779-2.559-5.032-5.714-5.032z"></path>
        </symbol>
        <symbol id="icon-Queen" viewBox="0 0 21 20">
            <path d="M6.658 9.498c-4.186-0.977-1.186-4.117-5.163-3.209 0.349 2.233 2.233 8.582 5.931 8.582h8.373c0.907-2.791 3.14-5.931 3.489-8.861-3.837 0.488-1.954 3.349-5.163 3.349l-0.419-4.396c-1.256 0.488-1.047 0.14-1.814 1.744-0.209 0.419-0.279 0.837-0.488 1.395-0.907 1.814-0.14 0.279-0.837 1.186-2.861-2.163-0.279-2.791-3.14-4.396l-0.767 4.605z"></path>
            <path d="M18.868 17.242c-2.372-1.465-14.512-0.907-16.885-0.488-0.279 3.698-0.349 2.791 7.954 2.791 9.14 0 8.721 0.977 8.931-2.302z"></path>
            <path d="M5.961 3.009c0.698 0.419-1.116 0.837 1.535 0.628 2.582-0.279 1.744-2.512 1.047-3.14-0.837-0.837-3.768-0.977-2.582 2.512z"></path>
            <path d="M0.030 4.683l2.442 0.070 0.488-2.651c0-0.070-1.535-1.884-3-0.488-1.047 1.047-0.349 2.163 0.070 3.070z"></path>
            <path d="M12.101 3.218c2.442 0.767 4.326-0.767 2.582-2.512-1.256-1.256-3.558-0.907-2.582 2.512z"></path>
            <path d="M18.38 4.404c2.861 1.116 2.651-0.558 2.651-0.419l0.070-2.372c-2.582-0.698-3.977-0.209-2.721 2.791z"></path>
        </symbol>
        <symbol id="icon-Rook" viewBox="0 0 18 20">
            <path d="M2.129 7.239c0.168 0.168 0.505 0.168 0.505 0.337 0.168 0.505 2.357 0.673 2.020 2.862-0.842 4.209-1.178-1.178-2.357 3.199 0.168 0.168 0.337 0.168 0.337 0.337 0.168 0.168 0.337 0.168 0.505 0.168h12.458c0-3.535-3.199-1.852-2.188-4.882l2.357-2.020v-7.071h-5.724c0 2.525 0.673 4.040-0.673 5.724-2.189-0.673-1.347 1.852-1.515-5.387l-5.724-0.505v7.239z"></path>
            <path d="M0.278 16.835c0.337 3.872 3.199 2.357 7.239 2.357 3.030 0 7.071 0.505 9.596-0.168 0-0.168 0.168-0.673 0.168-0.505l0.337-2.188-13.299-0.168c-4.545 0-3.367 0.337-4.040 0.673z"></path>
        </symbol>
        <symbol id="icon-Bishop" viewBox="0 0 17 20">
            <path d="M7.183 4.114c-1.916 1.676-2.155 0.718-4.071 3.113-1.676 1.916-1.197 4.071-0.718 6.226 5.268 3.592 14.846 3.113 11.733-6.226-4.549 0.479-2.873 5.268-6.704 3.592 0.718-2.394 0.239-0.958 1.916-2.394 0.958-0.958 1.197-1.676 2.394-2.394-0.718-1.197-1.197-1.437-2.155-1.916 1.676-1.437 1.676-0.958 1.437-3.113-1.437-0.958-3.113-1.437-4.549-0.479-2.394 1.676 0 2.873 0.718 3.592z"></path>
            <path d="M0.718 19.438c2.155 0.718 13.648 0.718 15.803 0l0.239-1.916c-2.394-1.437-13.888-0.718-16.522-0.479l0.479 2.394z"></path>
        </symbol>
        <symbol id="icon-Horse" viewBox="0 0 17 20">
            <path d="M0.909 7.871l1.952 1.627c3.254-0.976 1.302-2.278 4.881-1.952 0.325 3.579-7.484 3.905-4.23 6.833 2.278 0.976 7.484 0.651 10.738 0.325 0.325-5.857 0.976-12.69-3.579-14.317-4.881-1.627-6.508 2.278-8.135 4.23-0.651 1.302-1.302 1.627-1.627 3.254z"></path>
            <path d="M0.258 17.307v1.952c2.603 0.976 13.992 0.976 16.269 0 0.325 0 0.325-0.325 0.325-0.325l0.325-1.952c-2.603-0.651-14.317-1.302-16.92 0.325z"></path>
        </symbol>
        <symbol id="icon-Pawn" viewBox="0 0 18 20">
            <path d="M7.914 7.149l-4.674 0.85c1.275 4.249 0.425-0.425 3.399 2.974-1.275 0.85-1.7 1.7-2.55 3.399l10.198 0.425c-0.85-2.55-1.275-2.55-2.55-4.249l2.125-0.85c0.85-0.85 0.85-0.425 1.275-1.7l-4.674-0.85 2.125-1.7c4.249-5.524-8.498-8.073-7.649-1.7 0.425 2.974 0.85 1.7 2.974 3.399z"></path>
            <path d="M0.691 19.472c2.55 0.425 14.872 0.85 16.997-0.425l0.425-1.7c-2.55-1.7-14.872-1.275-17.847-0.85 0 2.974 0.425 2.55 0.425 2.974z"></path>
        </symbol>
        <symbol id="icon-Check" viewBox="0 0 24 20">
            <path d="M10.179 14.055c3.322-5.815 6.941-9.15 11.892-13.014 0.407-0.325 0.972-0.595 1.268-1.040-1.481 0.297-4.192 1.709-5.358 2.397-2.943 1.756-6.052 4.32-8.116 6.995-0.592 0.78-1.064 1.384-1.62 2.229-0.426 0.65-0.972 1.802-1.397 2.332-0.49-0.483-2.675-4.301-3.147-5.053-0.352-0.539-0.685-1.208-1.055-1.653-0.352 0.353-2.082 4.691-2.156 4.951l6.478 7.803 3.211-5.945z"></path>
        </symbol>
        <symbol id="icon-Mail" viewBox="0 0 28 20">
            <path fill="#fff" style="fill: var(--color2, #fff)" d="M26.216 2.326l-7.932 7.881 7.932 7.881c0.143-0.3 0.23-0.631 0.23-0.985v-13.792c0-0.354-0.087-0.685-0.23-0.985zM24.147 1.012h-21.556c-0.354 0-0.685 0.087-0.985 0.23l10.138 10.087c0.896 0.896 2.354 0.896 3.25 0l10.138-10.087c-0.3-0.143-0.631-0.23-0.985-0.23zM0.523 2.326c-0.143 0.3-0.23 0.631-0.23 0.985v13.792c0 0.354 0.087 0.685 0.23 0.985l7.932-7.881-7.932-7.881z"></path>
            <path fill="#fff" style="fill: var(--color2, #fff)" d="M17.425 10.243l-1.122 1.122c-1.493 1.494-3.924 1.494-5.417 0l-1.122-1.122-7.932 7.881c0.3 0.143 0.631 0.23 0.985 0.23h21.556c0.354 0 0.685-0.087 0.985-0.23l-7.932-7.881z"></path>
        </symbol>
        <symbol id="icon-Telegram" viewBox="0 0 20 20">
            <path fill="#fefefe" style="fill: var(--color3, #fefefe)" d="M8.205 12.136c0.099 0.031 0.496 0.336 0.553 0.424-0.214 0.179-0.466 0.431-0.668 0.58l0.114-1.004zM6.9 13.136c0.004 0.046 0.004 0.107 0.011 0.149 0.046 0.176 0.015 0.080 0.080 0.126 0.103 0.317 0.099 0.515 0.355 0.737 0.382 0.328 0.813-0.015 1.107-0.301l0.591-0.546c0.092-0.084 0.183-0.195 0.321-0.271 0.168 0.053 0.698 0.496 0.878 0.649 0.111 0.095 0.088 0.057 0.191 0.126 0.099 0.061 0.225 0.21 0.336 0.286l0.363 0.267c0.114 0.076 0.244 0.195 0.363 0.259 0.301 0.16 0.782 0.137 1.004-0.057 0.076-0.065 0.053-0.072 0.134-0.141 0.233-0.202 0.21-0.214 0.298-0.645 0.073-0.347 0.126-0.695 0.198-1.053 0.072-0.355 0.149-0.695 0.21-1.038 0.069-0.351 0.156-0.706 0.214-1.042 0.248-1.366 0.565-2.763 0.824-4.152 0.095-0.515 0.382-1.546-0.836-1.313-0.374 0.072-1.397 0.53-1.843 0.675-0.038 0.008-0.084 0.008-0.122 0.027-0.141 0.069-0.034 0.011-0.088 0.076l-4.217 1.649c-0.847 0.294-1.977 0.782-2.843 1.114-0.275 0.103-0.756 0.267-0.866 0.588-0.088 0.263-0.046 0.561 0.16 0.756 0.58 0.542 2.396 0.756 2.557 1.084l0.382 1.187c0.015 0.061 0.008 0.076 0.027 0.13l0.122 0.42c0.038 0.103 0.065 0.118 0.092 0.256zM9.262 10.64c0.069-0.092 0.172-0.126 0.252-0.237l0.103-0.065c0.206-0.248 0.58-0.523 0.82-0.74l1.633-1.496c0.076-0.072 0.191-0.156 0.279-0.233 0.118-0.107 0.118-0.141 0.248-0.259 0.393-0.363-0.042-1.141-0.782-0.626l-1.587 0.996c-0.389 0.282-0.439 0.263-0.622 0.393l-2.828 1.797c-0.111 0.065-0.183 0.156-0.332 0.153-0.027-0.015-0.027-0.027-0.088-0.050-0.057-0.019-0.080-0.019-0.134-0.030l-1.675-0.546c-0.206-0.065-0.153-0.027-0.214-0.114 0.080-0.103 1.038-0.45 1.168-0.492l7.048-2.778c0.248-0.092 1.011-0.416 1.198-0.424-0.046 0.305-0.141 0.763-0.214 1.046-0.355 1.469-0.641 3.48-1.007 5.068-0.073 0.317-0.134 0.683-0.202 1.019-0.065 0.313-0.092 1.263-0.572 0.866l-1.103-0.851c-0.122-0.103-0.301-0.214-0.424-0.321l-0.237-0.16c-0.050-0.038-0.153-0.134-0.21-0.179l-1.099-0.859c-0.118-0.076-0.111-0.050-0.176-0.172 0.061-0.134 0.534-0.473 0.656-0.618l0.099-0.088zM18.306 10.251c-0.134 0.813-0.019 0.725-0.317 1.813l-0.622 1.534c-0.183 0.408-0.748 1.24-1.053 1.607-0.603 0.721-0.988 1.007-1.706 1.546-1.423 1.061-3.751 1.694-5.48 1.519-0.866-0.088-1.412-0.183-2.171-0.45-1.118-0.393-1.565-0.668-2.477-1.317-0.042-0.027-0.092-0.072-0.126-0.107-0.099-0.092-0.042-0.042-0.156-0.118-0.218-0.153-0.912-0.851-1.080-1.076-0.263-0.362-0.912-1.194-1.076-1.622-0.111-0.301-0.282-0.504-0.469-1.133-0.038-0.13-0.111-0.259-0.149-0.404-0.317-1.217-0.305-1.633-0.294-2.965 0.004-0.492 0.156-1.309 0.305-1.816 0.092-0.301 0.198-0.519 0.286-0.775 0.156-0.439 0.462-1.061 0.725-1.427l0.923-1.233 1.137-1.015c0.34-0.271 0.965-0.622 1.316-0.836l0.775-0.321c0.546-0.229 1.015-0.366 1.69-0.473 0.725-0.118 2.228-0.164 2.995 0.011l0.431 0.088c0.076 0.027 0.114 0.050 0.21 0.069 0.374 0.084 1.423 0.473 1.748 0.672 0.5 0.309 1.462 0.862 1.889 1.328 0.446 0.481 0.637 0.588 1.065 1.206l0.183 0.248c0.092 0.141 0.134 0.218 0.206 0.34l0.572 1.034c0.424 0.908 0.916 2.873 0.717 4.076zM2.531 3.356l-0.5 0.618c-0.691 1.057-0.698 1.004-1.21 2.198-0.954 2.236-0.836 5.457 0.229 7.533l0.271 0.553c0.168 0.321 0.565 0.897 0.79 1.206l0.79 0.935 1.057 0.904c0.492 0.34 0.992 0.683 1.606 0.977 1.958 0.931 3.579 1.080 5.735 0.805 0.855-0.111 1.824-0.447 2.595-0.82l1.725-1.091c0.103-0.088 0.229-0.164 0.317-0.271l0.103-0.061 0.614-0.595c0.45-0.557 0.981-1.118 1.339-1.79 0.366-0.683 0.504-0.969 0.771-1.698 0.214-0.588 0.496-1.95 0.5-2.625 0.004-1.145-0.030-1.74-0.286-2.797l-0.298-0.958c-0.229-0.729-0.962-2.061-1.511-2.683l-0.798-0.885c-0.092-0.088-0.092-0.050-0.179-0.137l-0.668-0.584c-0.637-0.45-0.805-0.599-1.542-0.962-0.527-0.263-0.736-0.363-1.305-0.53-0.649-0.191-1.355-0.385-2.061-0.435-0.927-0.069-1.4-0.053-2.312 0.061-0.881 0.114-1.637 0.382-2.438 0.695-0.515 0.202-1.477 0.782-1.942 1.149-0.126 0.095-0.198 0.164-0.343 0.286l-0.66 0.595c-0.137 0.122-0.13 0.179-0.294 0.317l-0.095 0.092z"></path>
        </symbol>
        <symbol id="icon-Viber" viewBox="0 0 19 20">
            <path fill="#fefefe" style="fill: var(--color3, #fefefe)" d="M5.221 15.614c-0.96-0.448-1.479-0.645-2.089-1.303-1.687-1.83-1.583-6.070-1.012-8.387 0.428-1.725 1.687-2.804 3.517-3.107 1.947-0.329 4.153-0.461 6.1-0.171 2.219 0.316 3.53 0.724 4.348 2.423 0.636 1.317 0.727 4.384 0.545 5.951-0.221 1.856-0.727 3.305-2.466 4.213-1.57 0.816-4.010 0.619-5.866 0.75-0.571 0.593-0.921 1.067-1.428 1.659-0.247 0.276-0.48 0.527-0.701 0.79-0.584 0.685-0.506 0.632-0.844 0.698-0.273-0.606-0.078-2.673-0.104-3.515zM7.985 17.602c2.505-0.092 5.139 0.132 7.164-1.040 2.141-1.224 2.764-2.91 3.076-5.201 0.298-2.159 0.117-5.569-0.818-7.334-0.999-1.909-2.505-2.594-5.178-2.962-2.505-0.342-5.126-0.29-7.514 0.276-1.999 0.487-3.595 1.962-4.127 4.095-0.545 2.159-0.558 5.424-0.013 7.597 0.545 2.186 2.154 3.239 3.984 4.108 0.013 0.527-0.052 1.725 0.039 2.159 0.117 0.527 0.727 0.882 1.272 0.448 0.61-0.487 1.466-1.712 2.115-2.146z"></path>
            <path fill="#fefefe" style="fill: var(--color3, #fefefe)" d="M11.061 10.9c-0.597 0.356-0.506 1.053-1.466 0.737-0.532-0.171-1.285-0.711-1.557-1.014-0.311-0.342-0.753-0.974-0.986-1.567-0.688-1.777 1.96-0.395-0.052-3.292-0.337-0.474-0.727-1.185-1.505-0.724-1.739 1.027-1.051 2.054-0.441 3.344 1.233 2.62 2.622 3.792 4.971 5.174 1.415 0.816 2.492 1.211 3.387-0.263 0.506-0.843-0.052-1.185-0.597-1.593-0.428-0.316-1.051-0.895-1.752-0.803z"></path>
            <path fill="#fefefe" style="fill: var(--color3, #fefefe)" d="M9.075 4.33l-0.065 0.355c0.779 0.25 3.491 0.171 4.322 3.055 0.117 0.421 0.143 0.685 0.169 1.119 0.065 1.211 0.519 0.685 0.558 0.435 0.052-0.421-0.195-1.606-0.324-1.962-0.415-1.211-1.376-2.212-2.557-2.699-0.428-0.184-1.57-0.54-2.102-0.303z"></path>
            <path fill="#fefefe" style="fill: var(--color3, #fefefe)" d="M9.452 5.621c0.078 0.685-0.117 0.158 1.077 0.54 1.947 0.632 1.583 2.317 1.908 2.91h0.324c0.727-1.777-2.102-4.239-3.309-3.45z"></path>
            <path fill="#fefefe" style="fill: var(--color3, #fefefe)" d="M9.789 6.924c0.091 0.711 0.532 0.132 1.038 0.658 0.558 0.606-0.078 0.908 0.662 1.119 0.156-0.224 0.104 0.29 0.156-0.382 0.065-0.922-1.155-1.975-1.856-1.396z"></path>
        </symbol>
        <symbol id="icon-Whatsapp" viewBox="0 0 21 20">
            <path fill="#fefefe" style="fill: var(--color3, #fefefe)" d="M2.655 17.832c0.253-0.859 0.661-1.939 0.954-2.829 0.119-0.348-0.127-0.368-0.487-1.053-0.107-0.21-0.249-0.479-0.36-0.728-1.128-2.643-0.776-5.884 0.954-8.073 0.42-0.534 0.503-0.645 1.041-1.136 1.413-1.286 2.874-1.986 4.948-2.184 2.181-0.206 4.1 0.514 5.775 1.749 0.135 0.099 0.178 0.154 0.313 0.253l0.831 0.819c0.443 0.645 0.811 0.934 1.275 1.982 0.495 1.132 0.748 2.299 0.72 3.613-0.040 1.753-0.542 2.936-1.369 4.278l-0.356 0.491c-0.38 0.51-1.152 1.25-1.682 1.622-1.769 1.242-3.879 1.812-6.060 1.476-1.381-0.214-2.153-0.598-3.17-1.175-0.245-0.138-0.495 0-0.807 0.103-0.57 0.19-2.114 0.724-2.517 0.791zM0.181 20.238c0.19 0.012 3.566-1.088 4.037-1.25 0.352-0.115 0.689-0.218 1.041-0.332 0.237-0.079 0.285-0.138 0.511-0.032 0.887 0.427 1.358 0.657 2.418 0.898 2.3 0.518 4.611 0.194 6.681-0.851 0.811-0.408 1.706-1.041 2.363-1.662l0.637-0.685c0.071-0.071 0.087-0.115 0.146-0.186 1.203-1.496 2.090-3.51 2.157-5.496 0.075-2.295-0.424-4.388-1.726-6.205l-0.431-0.558c-0.083-0.111-0.055-0.095-0.15-0.186-0.162-0.162-0.166-0.214-0.301-0.36-0.352-0.392-0.53-0.471-0.716-0.657-0.681-0.681-2.026-1.421-2.881-1.753-3.261-1.266-6.677-0.732-9.46 1.239-0.15 0.107-0.245 0.178-0.376 0.285-0.095 0.079-0.087 0.091-0.17 0.162-0.071 0.059-0.115 0.075-0.194 0.135-0.17 0.127-0.174 0.194-0.313 0.348-0.135 0.15-0.206 0.178-0.356 0.309l-0.594 0.732c-0.835 1.199-1.358 2.105-1.714 3.629-0.59 2.529-0.202 4.479 0.819 6.699 0.166 0.364 0.392 0.423 0.234 0.871-0.119 0.352-0.222 0.661-0.332 0.989-0.447 1.294-0.95 2.635-1.33 3.918z"></path>
            <path fill="#fefefe" style="fill: var(--color3, #fefefe)" d="M7.246 5.057c-0.404 0.036-0.736 0.162-0.918 0.388-0.712 0.886-1.041 1.654-0.55 2.999 0.325 0.894 1.156 1.986 1.793 2.75l1.354 1.25c0.673 0.518 1.191 0.807 2.114 1.148 0.515 0.194 1.496 0.582 2.074 0.538 0.507-0.036 1.314-0.336 1.658-0.673 0.091-0.091 0.071-0.087 0.162-0.17 0.257-0.23 0.321-0.495 0.396-0.89 0.119-0.629 0.047-0.657-0.428-0.886-0.764-0.368-1.876-1.144-2.22-0.708-0.15 0.186-0.677 0.977-0.914 1.076-0.376 0.162-1.757-0.791-2.114-1.068-0.55-0.423-1.12-1.175-1.5-1.753-0.202-0.305-0.087-0.396 0.313-0.819 0.665-0.704 0.332-0.989-0.012-1.797-0.135-0.313-0.257-0.633-0.392-0.934-0.182-0.415-0.301-0.499-0.815-0.451z"></path>
        </symbol>
        <symbol id="icon-Phone" viewBox="0 0 20 20">
            <path fill="#fff" style="fill: var(--color2, #fff)" d="M19.004 14.512c-0.051-0.042-3.751-2.803-4.782-2.626-0.492 0.079-0.778 0.409-1.352 1.069-0.092 0.107-0.314 0.362-0.487 0.544-0.354-0.122-0.699-0.269-1.032-0.44-1.719-0.872-3.096-2.295-3.911-4.042-0.16-0.338-0.296-0.688-0.406-1.046 0.188-0.167 0.451-0.38 0.563-0.471 0.676-0.549 1.016-0.824 1.111-1.314 0.195-1.016-2.44-4.832-2.468-4.866-0.119-0.177-0.277-0.325-0.461-0.434s-0.389-0.175-0.602-0.194c-1.093-0.018-4.282 3.98-4.293 4.662-0.001 0.040-0.010 4.069 4.874 9.205 4.966 5.046 8.993 5.17 9.033 5.17 0.683 0.011 4.783-3.043 4.801-4.137-0.012-0.212-0.071-0.419-0.173-0.606s-0.244-0.348-0.416-0.473z"></path>
        </symbol>
    </defs>
</svg>